<svg width="60" height="60" viewBox="0 0 60 60" fill="none" xmlns="http://www.w3.org/2000/svg">
<g filter="url(#filter0_d)">
<rect x="10" y="8" width="40" height="40" rx="20" fill="#FF6633"/>
</g>
<path fill-rule="evenodd" clip-rule="evenodd" d="M38 25.61H34.168L30.656 20.354C30.336 19.882 29.64 19.882 29.328 20.354L25.816 25.61H22C21.56 25.61 21.2 25.97 21.2 26.41C21.2 26.482 21.208 26.554 21.232 26.626L23.264 34.042C23.448 34.714 24.064 35.21 24.8 35.21H35.2C35.936 35.21 36.552 34.714 36.744 34.042L38.776 26.626L38.8 26.41C38.8 25.97 38.44 25.61 38 25.61ZM29.992 22.242L32.24 25.61H27.744L29.992 22.242ZM30 32.01C29.12 32.01 28.4 31.29 28.4 30.41C28.4 29.53 29.12 28.81 30 28.81C30.88 28.81 31.6 29.53 31.6 30.41C31.6 31.29 30.88 32.01 30 32.01Z" fill="white"/>
<defs>
<filter id="filter0_d" x="0" y="0" width="60" height="60" filterUnits="userSpaceOnUse" color-interpolation-filters="sRGB">
<feFlood flood-opacity="0" result="BackgroundImageFix"/>
<feColorMatrix in="SourceAlpha" type="matrix" values="0 0 0 0 0 0 0 0 0 0 0 0 0 0 0 0 0 0 127 0" result="hardAlpha"/>
<feOffset dy="2"/>
<feGaussianBlur stdDeviation="5"/>
<feColorMatrix type="matrix" values="0 0 0 0 1 0 0 0 0 0.4 0 0 0 0 0.2 0 0 0 0.25 0"/>
<feBlend mode="normal" in2="BackgroundImageFix" result="effect1_dropShadow"/>
<feBlend mode="normal" in="SourceGraphic" in2="effect1_dropShadow" result="shape"/>
</filter>
</defs>
</svg>
