<svg width="100" height="100" viewBox="0 0 100 100" fill="none" xmlns="http://www.w3.org/2000/svg">
<g filter="url(#filter0_d)">
<rect x="30" y="20" width="40" height="40" rx="20" fill="#E62E7B"/>
</g>
<path fill-rule="evenodd" clip-rule="evenodd" d="M46.8 44.8C45.92 44.8 45.208 45.52 45.208 46.4C45.208 47.28 45.92 48 46.8 48C47.68 48 48.4 47.28 48.4 46.4C48.4 45.52 47.68 44.8 46.8 44.8ZM42.8 33.6H43.6L46.48 39.672L45.4 41.624C44.816 42.696 45.584 44 46.8 44H55.6C56.04 44 56.4 43.64 56.4 43.2C56.4 42.76 56.04 42.4 55.6 42.4H46.8L47.68 40.8H53.64C54.24 40.8 54.768 40.472 55.04 39.976L57.904 34.784C58.2 34.256 57.816 33.6 57.208 33.6H45.368L44.832 32.456C44.704 32.176 44.416 32 44.112 32H42.8C42.36 32 42 32.36 42 32.8C42 33.24 42.36 33.6 42.8 33.6ZM54.8 44.8C53.92 44.8 53.208 45.52 53.208 46.4C53.208 47.28 53.92 48 54.8 48C55.68 48 56.4 47.28 56.4 46.4C56.4 45.52 55.68 44.8 54.8 44.8Z" fill="white"/>
<defs>
<filter id="filter0_d" x="0" y="0" width="100" height="100" filterUnits="userSpaceOnUse" color-interpolation-filters="sRGB">
<feFlood flood-opacity="0" result="BackgroundImageFix"/>
<feColorMatrix in="SourceAlpha" type="matrix" values="0 0 0 0 0 0 0 0 0 0 0 0 0 0 0 0 0 0 127 0" result="hardAlpha"/>
<feOffset dy="10"/>
<feGaussianBlur stdDeviation="15"/>
<feColorMatrix type="matrix" values="0 0 0 0 0.901961 0 0 0 0 0.180392 0 0 0 0 0.482353 0 0 0 0.3 0"/>
<feBlend mode="normal" in2="BackgroundImageFix" result="effect1_dropShadow"/>
<feBlend mode="normal" in="SourceGraphic" in2="effect1_dropShadow" result="shape"/>
</filter>
</defs>
</svg>
