<svg width="20" height="22" viewBox="0 0 20 22" fill="none" xmlns="http://www.w3.org/2000/svg">
<path fill-rule="evenodd" clip-rule="evenodd" d="M12 0H2C0.9 0 0 0.9 0 2V20C0 21.1 0.9 22 2 22H12C13.1 22 14 21.1 14 20V2C14 0.9 13.1 0 12 0ZM12 19H2V3H12V19ZM18.63 7.26C18.37 6.94 17.89 6.9 17.59 7.2L17.56 7.23C17.31 7.48 17.3 7.88 17.51 8.16C18.77 9.8 18.76 12.03 17.49 13.73C17.28 14.01 17.3 14.4 17.54 14.65L17.59 14.7C17.88 14.99 18.35 14.96 18.62 14.65C20.42 12.52 20.42 9.46 18.63 7.26ZM15.42 9.37L15.36 9.43C15.16 9.63 15.1 9.93 15.21 10.19C15.42 10.68 15.42 11.22 15.21 11.71C15.1 11.97 15.16 12.27 15.36 12.47L15.44 12.55C15.76 12.87 16.31 12.8 16.53 12.4C17.02 11.51 17.02 10.46 16.52 9.54C16.4196 9.34386 16.2312 9.20778 16.0134 9.17413C15.7956 9.14047 15.5749 9.21332 15.42 9.37Z" fill="#C3CAD9"/>
</svg>
