<svg width="130" height="100" viewBox="0 0 130 100" fill="none" xmlns="http://www.w3.org/2000/svg">
<g filter="url(#filter0_d)">
<rect x="30" y="20" width="70" height="40" rx="20" fill="white"/>
</g>
<path d="M53.625 38.1875H55.5938C55.5938 37.4434 56.1504 36.9512 56.8887 36.9512C57.5449 36.9512 58.0078 37.3848 58.0078 37.9941C58.0078 38.5156 57.791 38.8965 56.748 39.834L53.748 42.5352V44H60.1934V42.3477H56.5137V42.3066L58.166 40.8008C59.5371 39.5586 60.0879 38.9434 60.0879 37.8535C60.0879 36.377 58.8281 35.334 56.8887 35.334C54.9434 35.334 53.625 36.4766 53.625 38.1875ZM64.6523 44.2109C66.6855 44.2109 68.0566 42.9805 68.0566 41.1523C68.0566 39.5527 66.9082 38.3984 65.3086 38.3984C64.4297 38.3984 63.7383 38.7676 63.4043 39.3359H63.3633L63.5332 37.1973H67.5293V35.5449H61.8398L61.4766 40.584H63.3398C63.5684 40.1621 64.0312 39.8574 64.6523 39.8574C65.4668 39.8574 66.0293 40.4082 66.0293 41.2051C66.0293 42.002 65.4727 42.5586 64.6523 42.5586C63.9434 42.5586 63.3926 42.1543 63.2871 41.5156H61.3359C61.3652 43.0977 62.7363 44.2109 64.6523 44.2109ZM74.5195 44.8262H75.041V43.9355C76.8926 43.8301 78.1289 42.875 78.1289 41.3574C78.1289 40.0449 77.2969 39.3887 75.6445 39.0254L75.041 38.8965V37.1445C75.6621 37.2207 76.0664 37.5371 76.1543 38.1113H78C77.9414 36.6582 76.8516 35.7148 75.041 35.6152V34.6953H74.5195V35.6094C72.75 35.6738 71.4785 36.623 71.4785 38.1172C71.4785 39.4414 72.3516 40.1504 73.9219 40.4961L74.5195 40.6191V42.4121C73.7871 42.3535 73.3652 42.0078 73.2715 41.4688H71.4141C71.4551 42.9922 72.6914 43.877 74.5195 43.9414V44.8262ZM73.4473 37.9238C73.4473 37.4961 73.8164 37.1855 74.5195 37.1328V38.7793C73.7871 38.5918 73.4473 38.3457 73.4473 37.9238ZM76.1719 41.5859C76.1719 42.0547 75.7617 42.3477 75.041 42.4062V40.7363C75.8555 40.9355 76.1719 41.1348 76.1719 41.5859Z" fill="#6B7A99"/>
<defs>
<filter id="filter0_d" x="0" y="0" width="130" height="100" filterUnits="userSpaceOnUse" color-interpolation-filters="sRGB">
<feFlood flood-opacity="0" result="BackgroundImageFix"/>
<feColorMatrix in="SourceAlpha" type="matrix" values="0 0 0 0 0 0 0 0 0 0 0 0 0 0 0 0 0 0 127 0" result="hardAlpha"/>
<feOffset dy="10"/>
<feGaussianBlur stdDeviation="15"/>
<feColorMatrix type="matrix" values="0 0 0 0 0.211765 0 0 0 0 0.239216 0 0 0 0 0.301961 0 0 0 0.05 0"/>
<feBlend mode="normal" in2="BackgroundImageFix" result="effect1_dropShadow"/>
<feBlend mode="normal" in="SourceGraphic" in2="effect1_dropShadow" result="shape"/>
</filter>
</defs>
</svg>
