<svg width="100" height="40" viewBox="0 0 100 40" fill="none" xmlns="http://www.w3.org/2000/svg">
<rect opacity="0.5" width="100" height="40" rx="20" fill="#0D111A"/>
<path d="M48.6289 24H50.3105V22.4473H51.4238V21.0352H50.3105V15.5449H47.8145C46.0801 18.0938 45.1602 19.5703 44.4219 20.9707V22.4473H48.6289V24ZM45.9629 21.0352C46.6367 19.7754 47.4043 18.5742 48.6289 16.8105H48.6641V21.082H45.9629V21.0352ZM55.6133 24.1875C57.5527 24.1875 58.8828 22.9746 58.8828 21.1875C58.8828 19.5762 57.7285 18.416 56.1172 18.416C55.2617 18.416 54.5645 18.7617 54.2129 19.3301H54.1777L54.3828 16.9512H58.373V15.5449H52.9766L52.5898 20.5078H54.1309C54.418 19.998 54.9453 19.6816 55.625 19.6816C56.5508 19.6816 57.1953 20.3203 57.1953 21.2285C57.1953 22.1484 56.5508 22.7871 55.6191 22.7871C54.8047 22.7871 54.1777 22.3066 54.0781 21.5742H52.4434C52.4902 23.1094 53.8027 24.1875 55.6133 24.1875ZM71.3047 24V15.5449H69.2539L66.8516 21.6152H66.8047L64.4023 15.5449H62.3516V24H63.9277V18.293H63.9746L66.2715 24H67.3848L69.6816 18.293H69.7285V24H71.3047ZM73.4434 16.8691C73.9414 16.8691 74.334 16.4707 74.334 15.9902C74.334 15.5039 73.9414 15.1113 73.4434 15.1113C72.9453 15.1113 72.5527 15.5039 72.5527 15.9902C72.5527 16.4707 72.9453 16.8691 73.4434 16.8691ZM72.5938 24H74.3047V17.7188H72.5938V24ZM75.4473 24H77.1582V20.3965C77.1582 19.582 77.6445 19.0195 78.4121 19.0195C79.1797 19.0195 79.5664 19.4883 79.5664 20.3086V24H81.2773V19.9512C81.2773 18.4805 80.4922 17.6016 79.0977 17.6016C78.1309 17.6016 77.4688 18.0586 77.1348 18.8379H77.0996V17.7188H75.4473V24Z" fill="white"/>
<path fill-rule="evenodd" clip-rule="evenodd" d="M27 12C22.6 12 19 15.6 19 20C19 24.4 22.6 28 27 28C31.4 28 35 24.4 35 20C35 15.6 31.4 12 27 12ZM29.84 23.04L26.576 21.032C26.336 20.888 26.192 20.632 26.192 20.352V16.6C26.2 16.272 26.472 16 26.8 16C27.128 16 27.4 16.272 27.4 16.6V20.16L30.472 22.008C30.76 22.184 30.856 22.56 30.68 22.848C30.504 23.128 30.128 23.216 29.84 23.04Z" fill="white"/>
</svg>
