<svg width="70" height="40" viewBox="0 0 70 40" fill="none" xmlns="http://www.w3.org/2000/svg">
<rect opacity="0.3" width="70" height="40" rx="20" fill="#0D111A"/>
<path d="M19.8516 18.1875H21.8203C21.8203 17.4434 22.377 16.9512 23.1152 16.9512C23.7715 16.9512 24.2344 17.3848 24.2344 17.9941C24.2344 18.5156 24.0176 18.8965 22.9746 19.834L19.9746 22.5352V24H26.4199V22.3477H22.7402V22.3066L24.3926 20.8008C25.7637 19.5586 26.3145 18.9434 26.3145 17.8535C26.3145 16.377 25.0547 15.334 23.1152 15.334C21.1699 15.334 19.8516 16.4766 19.8516 18.1875ZM30.8789 24.2109C32.9121 24.2109 34.2832 22.9805 34.2832 21.1523C34.2832 19.5527 33.1348 18.3984 31.5352 18.3984C30.6562 18.3984 29.9648 18.7676 29.6309 19.3359H29.5898L29.7598 17.1973H33.7559V15.5449H28.0664L27.7031 20.584H29.5664C29.7949 20.1621 30.2578 19.8574 30.8789 19.8574C31.6934 19.8574 32.2559 20.4082 32.2559 21.2051C32.2559 22.002 31.6992 22.5586 30.8789 22.5586C30.1699 22.5586 29.6191 22.1543 29.5137 21.5156H27.5625C27.5918 23.0977 28.9629 24.2109 30.8789 24.2109ZM38.748 24.2109C40.9863 24.2109 42.3691 22.5117 42.3691 19.752C42.3691 16.9746 40.9746 15.3281 38.748 15.3281C36.5273 15.3281 35.1211 16.9805 35.1211 19.7578C35.1211 22.5234 36.5098 24.2109 38.748 24.2109ZM38.748 22.5352C37.8574 22.5352 37.3066 21.6035 37.3066 19.752C37.3066 17.9121 37.8574 17.0039 38.748 17.0039C39.6387 17.0039 40.1836 17.9062 40.1836 19.7578C40.1836 21.6035 39.6445 22.5352 38.748 22.5352ZM48.7324 26.4023C50.7188 26.4023 52.0664 25.4531 52.0664 23.9297V17.6191H50.0039V18.75H49.9629C49.6758 18.0293 48.9668 17.5254 48.041 17.5254C46.4414 17.5254 45.4746 18.75 45.4746 20.7891C45.4746 22.7871 46.4883 23.9473 48.0117 23.9473C48.9492 23.9473 49.6992 23.4844 49.9512 22.8105H49.9922V23.9824C49.9922 24.6152 49.5762 25.043 48.7793 25.043C48.1875 25.043 47.7539 24.7852 47.6543 24.416H45.6445C45.7617 25.5762 46.916 26.4023 48.7324 26.4023ZM48.7969 22.4121C48.0469 22.4121 47.6016 21.8379 47.6016 20.8066C47.6016 19.7812 48.0527 19.1484 48.7969 19.1484C49.5352 19.1484 49.998 19.7871 49.998 20.8066C49.998 21.8379 49.541 22.4121 48.7969 22.4121Z" fill="white"/>
</svg>
