<svg width="30" height="30" viewBox="0 0 30 30" fill="none" xmlns="http://www.w3.org/2000/svg">
<path fill-rule="evenodd" clip-rule="evenodd" d="M21 20.4174C21 16.5515 16.9706 13.4174 12 13.4174C7.02944 13.4174 3 16.5515 3 20.4174" fill="#FFCB33"/>
<path fill-rule="evenodd" clip-rule="evenodd" d="M21 25.4174V26.4174C21 27.522 20.1046 28.4174 19 28.4174H5C3.89543 28.4174 3 27.522 3 26.4174V25.4174" fill="#FFCB33"/>
<rect x="2" y="21.4174" width="20" height="3" rx="1.5" fill="#CC7429"/>
<path fill-rule="evenodd" clip-rule="evenodd" d="M27.2712 2C27.2712 2.55228 26.8235 3 26.2712 3H22.9177L22.624 6.41746H27.6893C27.7114 6.41746 27.7335 6.4182 27.7555 6.41966C28.3066 6.45624 28.7237 6.93262 28.6871 7.48369L27.3978 26.9099C27.3629 27.4353 26.9265 27.8436 26.3999 27.8436H22.3366C22.5791 27.3278 22.7147 26.7516 22.7147 26.1438V25.0933C23.3332 24.462 23.7147 23.5975 23.7147 22.6438C23.7147 21.6902 23.3332 20.8256 22.7147 20.1943V20.1438C22.7147 15.7839 19.0408 12.2966 14.2342 11.3801L14.0018 7.47691C14.0006 7.45712 14 7.43729 14 7.41746C14 6.86518 14.4477 6.41746 15 6.41746H20.6166L21.0037 1.91436C21.0481 1.39718 21.4809 1 22 1H26.2712C26.8235 1 27.2712 1.44772 27.2712 2Z" fill="#E62E2E"/>
</svg>
