<svg width="29" height="28" viewBox="0 0 29 28" fill="none" xmlns="http://www.w3.org/2000/svg">
<path fill-rule="evenodd" clip-rule="evenodd" d="M2.34117 27.0105C2.55184 27.2195 2.90073 27.2028 3.10902 26.9914C3.8242 26.2655 5.47464 24.8664 7.25857 25.2589C9.63905 25.7827 11.6392 26.4017 13.1626 25.2589C14.4683 24.2796 17.3824 21.5461 18.1891 20.7844C18.3075 20.6726 18.3124 20.4888 18.2032 20.3681L16.1485 18.0977C16.0341 17.9712 15.8374 17.9655 15.7158 18.085L13.7855 19.9822C13.7855 19.9822 12.6387 20.688 12.1148 19.8784C11.5908 19.0688 12.026 18.4072 12.026 18.4072L14.1374 16.3293C14.2562 16.2124 14.257 16.0211 14.1391 15.9033L12.0394 13.8035C11.9231 13.6873 11.7349 13.6863 11.6174 13.8013L9.54401 15.8315C9.54401 15.8315 8.50623 16.0546 8.08865 15.5527C7.67107 15.0508 7.96561 14.4822 8.16248 14.0885C8.31549 13.7824 9.49651 12.7616 10.0151 12.3219C10.1467 12.2104 10.1588 12.0114 10.0411 11.8852L7.79653 9.48031C7.68334 9.35904 7.49575 9.3508 7.37647 9.46608C6.53464 10.2797 3.47266 13.3276 2.73528 15.3077C1.87806 17.6098 3.59251 20.8309 2.73528 21.926C2.12361 22.7074 0.992182 23.7797 0.394173 24.33C0.181769 24.5254 0.173342 24.8596 0.378232 25.0629L2.34117 27.0105Z" fill="#99A6BF"/>
<path d="M16.2136 25.1038C16.2136 25.1038 20.1361 25.9419 21.2424 23.5951C22.3488 21.2483 20.9072 19.3374 17.5211 16.2195C14.135 13.1016 8 7 8 7" stroke="#FFCB33" stroke-width="2" stroke-linecap="round" stroke-linejoin="round"/>
<path d="M24.2424 20.5951C25.3488 18.2483 23.9072 16.3374 20.5211 13.2195C18.2637 11.1409 15.09 8.06776 11 4" stroke="#FFCB33" stroke-width="2" stroke-linecap="round" stroke-linejoin="round"/>
<path d="M27.2424 17.5951C28.3488 15.2483 26.9072 13.3374 23.5211 10.2195C21.2637 8.14093 18.09 5.06776 14 1" stroke="#FFCB33" stroke-width="2" stroke-linecap="round" stroke-linejoin="round"/>
</svg>
