<svg width="30" height="30" viewBox="0 0 30 30" fill="none" xmlns="http://www.w3.org/2000/svg">
<path fill-rule="evenodd" clip-rule="evenodd" d="M6.95158 18.564C7.39868 18.3012 7.55212 17.7228 7.41307 17.2232C7.25303 16.6481 7.0923 15.7865 7.0923 14.6454C7.0923 13.4602 7.39382 12.5615 7.68235 11.9728C7.92062 11.4867 7.88993 10.8555 7.48329 10.4981C6.995 10.0689 6.35285 9.53928 5.87299 9.26936C4.98622 8.77055 3.82234 8.96453 3.43438 9.8513C3.04642 10.7381 3.43438 11.1537 3.43438 11.1537C3.43438 11.1537 2.5199 11.7911 2.5199 12.567C2.5199 13.3429 2.9911 13.5408 2.9911 13.5408C2.9911 13.5408 1.85504 14.0156 2.0212 14.9263C2.18736 15.837 2.76941 15.8093 2.76941 15.8093C2.76941 15.8093 1.88243 16.4743 2.32592 17.278C2.76941 18.0816 3.43438 18.0816 3.43438 18.0816C3.43438 18.0816 2.88037 19.3009 3.85016 19.6612C4.49951 19.9024 6.0186 19.1124 6.95158 18.564Z" fill="#29CC39"/>
<path fill-rule="evenodd" clip-rule="evenodd" d="M23.2492 18.564C22.8021 18.3012 22.6486 17.7228 22.7877 17.2232C22.9477 16.6481 23.1084 15.7865 23.1084 14.6454C23.1084 13.4602 22.8069 12.5615 22.5184 11.9728C22.2801 11.4867 22.3108 10.8555 22.7175 10.4981C23.2057 10.0689 23.8479 9.53928 24.3278 9.26936C25.2145 8.77055 26.3784 8.96453 26.7664 9.8513C27.1543 10.7381 26.7664 11.1537 26.7664 11.1537C26.7664 11.1537 27.6808 11.7911 27.6808 12.567C27.6808 13.3429 27.2096 13.5408 27.2096 13.5408C27.2096 13.5408 28.3457 14.0156 28.1795 14.9263C28.0134 15.837 27.4313 15.8093 27.4313 15.8093C27.4313 15.8093 28.3183 16.4743 27.8748 17.278C27.4313 18.0816 26.7664 18.0816 26.7664 18.0816C26.7664 18.0816 27.3204 19.3009 26.3506 19.6612C25.7012 19.9024 24.1821 19.1124 23.2492 18.564Z" fill="#29CC39"/>
<path fill-rule="evenodd" clip-rule="evenodd" d="M15 22C18.866 22 22 18.866 22 15C22 11.134 18.866 8 15 8C11.134 8 8 11.134 8 15C8 18.866 11.134 22 15 22Z" fill="#E62E2E"/>
</svg>
