<svg width="28" height="28" viewBox="0 0 28 28" fill="none" xmlns="http://www.w3.org/2000/svg">
<path fill-rule="evenodd" clip-rule="evenodd" d="M5.52407 7.00905C9.58723 7.12994 13.1314 8.67914 16.1566 11.6567C19.1823 14.6348 20.743 18.1535 20.8387 22.213C20.8435 22.4169 20.7245 22.6 20.5434 22.6811L20.4621 22.7093L0.623316 27.753C0.542584 27.7735 0.458003 27.7735 0.377256 27.7531C0.139322 27.6928 -0.0151039 27.4711 0.00117376 27.2346L0.0154499 27.1455L5.02449 7.38595C5.08209 7.15874 5.28978 7.00203 5.52407 7.00905ZM8.30898 20.0018C7.48055 20.0018 6.80898 20.6733 6.80898 21.5018C6.80898 22.3302 7.48055 23.0018 8.30898 23.0018C9.13741 23.0018 9.80898 22.3302 9.80898 21.5018C9.80898 20.6733 9.13741 20.0018 8.30898 20.0018ZM9.80898 11.0018C8.15213 11.0018 6.80898 12.3449 6.80898 14.0018C6.80898 15.6586 8.15213 17.0018 9.80898 17.0018C11.4658 17.0018 12.809 15.6586 12.809 14.0018C12.809 12.3449 11.4658 11.0018 9.80898 11.0018Z" fill="#FFCB33"/>
<path fill-rule="evenodd" clip-rule="evenodd" d="M6.37368 4.25116C11.1049 4.71906 14.9231 6.52886 17.8282 9.68056C20.7375 12.8367 22.6286 16.6919 23.5017 21.2461C23.5537 21.5173 23.8157 21.695 24.0869 21.643C24.0966 21.6412 24.1063 21.639 24.1159 21.6366L27.4286 20.7949C27.6534 20.7378 27.8095 20.5336 27.8055 20.3016C27.7081 14.6632 25.5965 9.87481 21.4706 5.93652C17.3501 2.00323 12.5799 0.02439 7.1601 4.61517e-06C6.92559 -0.000996863 6.72187 0.161089 6.67019 0.389834L5.93518 3.64344C5.87436 3.91279 6.04338 4.18045 6.31272 4.2413C6.33282 4.24584 6.35318 4.24913 6.37368 4.25116Z" fill="#FFCB33"/>
</svg>
