<svg width="28" height="21" viewBox="0 0 28 21" fill="none" xmlns="http://www.w3.org/2000/svg">
<path fill-rule="evenodd" clip-rule="evenodd" d="M27.065 6.83974C26.8228 8.91654 26.7683 10.2878 23.8392 10.9551C20.9101 11.6225 20.0572 10.2878 17.981 10.9551C15.9049 11.6225 11.3812 15.8862 8.26686 16.2201C5.15253 16.5539 1.81575 14.2182 0.703299 11.8081C-0.409155 9.39791 0.0362029 5.54205 3.55837 3.31743C7.08054 1.09281 10.6399 -0.538575 15.9419 0.165887C21.2439 0.87035 23.7284 1.53774 24.8035 2.68712C25.4862 3.41698 27.3072 4.76295 27.065 6.83974Z" fill="#FF6633"/>
<path fill-rule="evenodd" clip-rule="evenodd" d="M6.42768 20.1913C8.51208 20.491 10.1452 20.182 11.9095 19.1809C13.6737 18.1798 16.4322 15.6021 18.3801 15.3759C20.3281 15.1497 22.7642 15.8087 24.5067 14.993C25.4049 14.5725 26.2993 13.5078 26.6843 12.6237C27.0692 11.7397 27.087 9.62051 27.087 9.62051C27.087 9.62051 25.4087 12.5119 22.7761 12.5119C20.1435 12.5119 18.5951 11.8504 15.822 13.5486C13.0488 15.2469 10.7271 17.0957 8.81387 17.3322C6.90062 17.5686 5.27234 17.5434 2.89069 15.9976C2.52418 15.7597 1.0096 16.5529 1.21663 16.9377C1.4228 17.3209 1.66083 17.6587 1.93475 17.9126C3.45476 19.3215 4.34327 19.8916 6.42768 20.1913Z" fill="#E62E2E"/>
</svg>
