<svg width="30" height="30" viewBox="0 0 30 30" fill="none" xmlns="http://www.w3.org/2000/svg">
<path fill-rule="evenodd" clip-rule="evenodd" d="M10 11.1425C14.4183 11.1425 18 12.9333 18 15.1425C18 15.1822 17.9988 15.2217 17.9965 15.2611L18 15.261V16.4845L9.24299 22.2618C8.41507 22.8079 8.11241 23.8782 8.53178 24.777L8.66327 25.0588C9.13032 26.0598 10.3204 26.4926 11.3213 26.0256C11.3768 25.9997 11.431 25.9713 11.4839 25.9404L18 22.1365V23.1425C18 25.3516 14.4183 27.1425 10 27.1425C5.67991 27.1425 2.1596 25.4303 2.00528 23.2891L2 23.1425V15.3622L2.01178 15.3615C2.00396 15.289 2 15.216 2 15.1425C2 12.9333 5.58172 11.1425 10 11.1425ZM10 12.1425C6.13401 12.1425 3 13.7095 3 15.6425C3 17.5755 6.13401 19.1425 10 19.1425C13.866 19.1425 17 17.5755 17 15.6425C17 13.7095 13.866 12.1425 10 12.1425Z" fill="#2D3C59"/>
<path d="M10 18.1425C12.7614 18.1425 15 17.0232 15 15.6425C15 14.2618 12.7614 13.1425 10 13.1425C7.23858 13.1425 5 14.2618 5 15.6425C5 17.0232 7.23858 18.1425 10 18.1425Z" fill="#FF6633"/>
<path fill-rule="evenodd" clip-rule="evenodd" d="M10.9798 25.0768L27.5041 15.4319C27.8112 15.2527 28 14.9238 28 14.5683V12.9455C28 12.3932 27.5523 11.9455 27 11.9455C26.8043 11.9455 26.6128 12.0029 26.4494 12.1107L9.7936 23.0966C9.37964 23.3696 9.22831 23.9048 9.43799 24.3542L9.56948 24.636C9.803 25.1364 10.398 25.3529 10.8985 25.1193C10.9262 25.1064 10.9534 25.0922 10.9798 25.0768Z" fill="#FFCB33"/>
<path fill-rule="evenodd" clip-rule="evenodd" d="M16.7293 11.9222L29.4688 4.48646C29.7759 4.30721 29.9647 3.97838 29.9647 3.62281V2C29.9647 1.44772 29.517 1 28.9647 1C28.769 1 28.5775 1.05745 28.4141 1.16523L14 10.6725" fill="#FFCB33"/>
</svg>
