<svg width="30" height="30" viewBox="0 0 30 30" fill="none" xmlns="http://www.w3.org/2000/svg">
<path fill-rule="evenodd" clip-rule="evenodd" d="M16.5 25.5617C22.8513 25.5617 28 20.3084 28 15.0617C28 15.0392 27.9995 15.0059 27.9987 14.9648C27.9876 14.4223 27.5356 13.9942 26.9929 14L16.5 14.1125H5.96818C5.4403 14.1125 5 14.5338 5 15.0617C5 20.3084 10.1487 25.5617 16.5 25.5617Z" fill="#7D8FB3"/>
<path fill-rule="evenodd" clip-rule="evenodd" d="M16.678 12.9751C16.6133 13.0376 16.6575 13.147 16.7474 13.147H19.2321C19.249 13.147 19.2648 13.1432 19.2795 13.1348C19.4676 13.0271 20.834 12.2167 21.5002 11.0292C22.2165 9.7523 22.5279 7.79022 22.5279 7.79022C22.5279 7.79022 19.6482 7.22962 18.0741 7.79022C16.6255 8.30613 15.5748 10.0222 15.4165 10.2925C15.4027 10.3162 15.4004 10.3433 15.4086 10.3695L16.0407 12.3948C16.0608 12.459 16.1373 12.4855 16.1928 12.4475L18.7684 10.6794C18.8695 10.61 18.9827 10.7486 18.8944 10.8338L16.678 12.9751Z" fill="#29CC39"/>
<path fill-rule="evenodd" clip-rule="evenodd" d="M13.006 13.147C13.1641 13.147 13.2574 12.9749 13.1661 12.8459C12.8024 12.3319 11.9815 11.2511 10.9109 10.3285C9.44715 9.06702 7.08032 7.50993 7.08032 7.50993C7.08032 7.50993 10.7242 8.88027 11.8142 9.78345C12.9043 10.6866 15.3958 12.929 15.3958 12.929C15.3958 12.929 14.0255 8.19498 12.2814 6.51332C10.5373 4.83166 7.73435 4.08408 5.67884 4.08408C3.62332 4.08408 2 4.70696 2 4.70696C2 4.70696 2.40894 8.38197 4.15289 10.3285C5.76544 12.1283 7.69762 13.0095 7.97964 13.1321C8.0036 13.1425 8.02809 13.147 8.05421 13.147H13.006Z" fill="#29CC39"/>
</svg>
